<?xml-stylesheet type="text/css" href="style.css"?>
<!-- Generator: Adobe Illustrator 16.0.0, SVG Export Plug-In . SVG Version: 6.00 Build 0)  -->
<!DOCTYPE svg PUBLIC "-//W3C//DTD SVG 1.1//EN" "http://www.w3.org/Graphics/SVG/1.1/DTD/svg11.dtd">
<svg class="animate2" version="1.1" id="Layer_1" xmlns="http://www.w3.org/2000/svg" xmlns:xlink="http://www.w3.org/1999/xlink" x="0px" y="0px"
	 width="76.333px" height="76.32px" viewBox="0 0 76.333 76.32" enable-background="new 0 0 76.333 76.32" xml:space="preserve">
<path fill="none" stroke="#000000" stroke-width="3.1763" stroke-linecap="round" stroke-miterlimit="10" d="M35.922,38.977
	c0.012,0.345-1.657,0.26-1.919,0.22c-1.289-0.2-2.386-1.263-2.917-2.411c-1.015-2.188-0.262-4.915,1.487-6.5
	c3.337-3.023,8.898-1.729,11.306,1.797c2.695,3.947,1.793,9.357-1.605,12.562c-3.583,3.381-8.854,3.812-13.182,1.633
	c-4.48-2.258-7.112-7.031-6.975-12.004c0.146-5.249,3.201-10.013,7.829-12.449c9.281-4.889,20.703,0.744,23.441,10.626
	c2.388,8.616-2.163,18.054-10.185,21.845c-8.352,3.946-18.657,1.434-24.598-5.539c-6.632-7.783-6.553-19.454-0.629-27.607
	c5.957-8.198,16.857-11.624,26.497-8.663c9.186,2.82,16.268,10.902,17.841,20.384c1.667,10.046-2.761,20.67-11.003,26.631
	c-9.312,6.733-22.214,7.099-32.004,1.108C9.862,54.83,4.455,44.166,4.963,33.157C5.45,22.549,11.317,12.894,20.416,7.461
	c9.078-5.421,20.346-6.141,30.06-1.976C60.368,9.727,67.743,18.572,70.29,29.01c2.464,10.092,0.234,20.92-5.818,29.334
	c-6.646,9.235-17.155,14.502-28.428,15.168"/>
</svg>
